<svg width="17" height="11" viewBox="0 0 17 11" fill="none" xmlns="http://www.w3.org/2000/svg">
<path d="M3.752 0C6.244 0 7.49 1.77333 7.49 5.32C7.49 6.93467 7.18667 8.232 6.58 9.212C5.97333 10.1827 5.03067 10.668 3.752 10.668C2.464 10.668 1.51667 10.1733 0.91 9.184C0.303333 8.19467 0 6.90667 0 5.32C0 3.68667 0.294 2.394 0.882 1.442C1.47 0.480667 2.42667 0 3.752 0ZM3.752 1.414C2.97733 1.414 2.44067 1.764 2.142 2.464C1.85267 3.164 1.708 4.116 1.708 5.32C1.708 6.496 1.84333 7.39667 2.114 8.022L4.424 1.54C4.228 1.456 4.004 1.414 3.752 1.414ZM3.752 9.24C4.51733 9.24 5.04467 8.876 5.334 8.148C5.63267 7.41067 5.782 6.468 5.782 5.32C5.782 3.92 5.60933 2.912 5.264 2.296L2.884 9.002C3.12667 9.16067 3.416 9.24 3.752 9.24Z" fill="#969EB5"/>
<path d="M12.752 0C15.244 0 16.49 1.77333 16.49 5.32C16.49 6.93467 16.1867 8.232 15.58 9.212C14.9733 10.1827 14.0307 10.668 12.752 10.668C11.464 10.668 10.5167 10.1733 9.91 9.184C9.30333 8.19467 9 6.90667 9 5.32C9 3.68667 9.294 2.394 9.882 1.442C10.47 0.480667 11.4267 0 12.752 0ZM12.752 1.414C11.9773 1.414 11.4407 1.764 11.142 2.464C10.8527 3.164 10.708 4.116 10.708 5.32C10.708 6.496 10.8433 7.39667 11.114 8.022L13.424 1.54C13.228 1.456 13.004 1.414 12.752 1.414ZM12.752 9.24C13.5173 9.24 14.0447 8.876 14.334 8.148C14.6327 7.41067 14.782 6.468 14.782 5.32C14.782 3.92 14.6093 2.912 14.264 2.296L11.884 9.002C12.1267 9.16067 12.416 9.24 12.752 9.24Z" fill="#2D2C35"/>
</svg>
