<svg width="16" height="11" viewBox="0 0 16 11" fill="none" xmlns="http://www.w3.org/2000/svg">
<path d="M3.752 0C6.244 0 7.49 1.77333 7.49 5.32C7.49 6.93467 7.18667 8.232 6.58 9.212C5.97333 10.1827 5.03067 10.668 3.752 10.668C2.464 10.668 1.51667 10.1733 0.91 9.184C0.303333 8.19467 0 6.90667 0 5.32C0 3.68667 0.294 2.394 0.882 1.442C1.47 0.480667 2.42667 0 3.752 0ZM3.752 1.414C2.97733 1.414 2.44067 1.764 2.142 2.464C1.85267 3.164 1.708 4.116 1.708 5.32C1.708 6.496 1.84333 7.39667 2.114 8.022L4.424 1.54C4.228 1.456 4.004 1.414 3.752 1.414ZM3.752 9.24C4.51733 9.24 5.04467 8.876 5.334 8.148C5.63267 7.41067 5.782 6.468 5.782 5.32C5.782 3.92 5.60933 2.912 5.264 2.296L2.884 9.002C3.12667 9.16067 3.416 9.24 3.752 9.24Z" fill="#969EB5"/>
<path d="M13.2378 8.07895H9L11.6613 0.5L12.973 1.01316L10.9676 6.69737H13.2378L13.3135 4.5H14.7135V6.69737H16V8.07895H14.7135V10.5H13.2378V8.07895Z" fill="#2D2C35"/>
</svg>
