<svg width="17" height="11" viewBox="0 0 17 11" fill="none" xmlns="http://www.w3.org/2000/svg">
<path d="M3.752 0C6.244 0 7.49 1.77333 7.49 5.32C7.49 6.93467 7.18667 8.232 6.58 9.212C5.97333 10.1827 5.03067 10.668 3.752 10.668C2.464 10.668 1.51667 10.1733 0.91 9.184C0.303333 8.19467 0 6.90667 0 5.32C0 3.68667 0.294 2.394 0.882 1.442C1.47 0.480667 2.42667 0 3.752 0ZM3.752 1.414C2.97733 1.414 2.44067 1.764 2.142 2.464C1.85267 3.164 1.708 4.116 1.708 5.32C1.708 6.496 1.84333 7.39667 2.114 8.022L4.424 1.54C4.228 1.456 4.004 1.414 3.752 1.414ZM3.752 9.24C4.51733 9.24 5.04467 8.876 5.334 8.148C5.63267 7.41067 5.782 6.468 5.782 5.32C5.782 3.92 5.60933 2.912 5.264 2.296L2.884 9.002C3.12667 9.16067 3.416 9.24 3.752 9.24Z" fill="#969EB5"/>
<path d="M12.956 7.308C12.9934 7.24267 13.096 7.07 13.264 6.79C13.432 6.51 13.5627 6.314 13.656 6.202C13.3107 6.51 12.8114 6.664 12.158 6.664C11.542 6.664 10.9914 6.51933 10.506 6.23C10.03 5.94067 9.65669 5.544 9.38602 5.04C9.12469 4.536 8.99402 3.976 8.99402 3.36C8.99402 2.69733 9.14802 2.114 9.45602 1.61C9.76402 1.09667 10.1934 0.7 10.744 0.42C11.304 0.14 11.948 0 12.676 0C13.3107 0 13.8894 0.14 14.412 0.42C14.9347 0.690667 15.3454 1.08733 15.644 1.61C15.952 2.13267 16.106 2.73933 16.106 3.43C16.106 3.878 16.0454 4.312 15.924 4.732C15.8027 5.152 15.5227 5.79133 15.084 6.65C14.6454 7.50867 13.9407 8.778 12.97 10.458H11.15L12.956 7.308ZM12.536 5.32C13.1054 5.32 13.572 5.14733 13.936 4.802C14.3094 4.45667 14.496 3.98533 14.496 3.388C14.496 2.79067 14.314 2.30533 13.95 1.932C13.586 1.54933 13.1287 1.358 12.578 1.358C11.9807 1.358 11.5 1.54933 11.136 1.932C10.7814 2.30533 10.604 2.786 10.604 3.374C10.604 3.98067 10.7907 4.45667 11.164 4.802C11.5374 5.14733 11.9947 5.32 12.536 5.32Z" fill="#2D2C35"/>
</svg>
