<svg width="48" height="50" viewBox="0 0 48 50" fill="none" xmlns="http://www.w3.org/2000/svg">
<g filter="url(#filter0_ddd_188_4616)">
<rect x="4" y="1" width="40" height="40" rx="4" fill="#E6E9EE"/>
<rect x="3.5" y="0.5" width="41" height="41" rx="4.5" stroke="#08090A" stroke-opacity="0.06"/>
</g>
<path d="M21.752 16C24.244 16 25.49 17.7733 25.49 21.32C25.49 22.9347 25.1867 24.232 24.58 25.212C23.9733 26.1827 23.0307 26.668 21.752 26.668C20.464 26.668 19.5167 26.1733 18.91 25.184C18.3033 24.1947 18 22.9067 18 21.32C18 19.6867 18.294 18.394 18.882 17.442C19.47 16.4807 20.4267 16 21.752 16ZM21.752 17.414C20.9773 17.414 20.4407 17.764 20.142 18.464C19.8527 19.164 19.708 20.116 19.708 21.32C19.708 22.496 19.8433 23.3967 20.114 24.022L22.424 17.54C22.228 17.456 22.004 17.414 21.752 17.414ZM21.752 25.24C22.5173 25.24 23.0447 24.876 23.334 24.148C23.6327 23.4107 23.782 22.468 23.782 21.32C23.782 19.92 23.6093 18.912 23.264 18.296L20.884 25.002C21.1267 25.1607 21.416 25.24 21.752 25.24Z" fill="#969EB5"/>
<path d="M28.8062 16.448L30.3882 16V26.584H28.8062V16.448Z" fill="#2D2C35"/>
<defs>
<filter id="filter0_ddd_188_4616" x="0" y="0" width="48" height="50" filterUnits="userSpaceOnUse" color-interpolation-filters="sRGB">
<feFlood flood-opacity="0" result="BackgroundImageFix"/>
<feColorMatrix in="SourceAlpha" type="matrix" values="0 0 0 0 0 0 0 0 0 0 0 0 0 0 0 0 0 0 127 0" result="hardAlpha"/>
<feOffset dy="1"/>
<feGaussianBlur stdDeviation="0.5"/>
<feColorMatrix type="matrix" values="0 0 0 0 0.0313726 0 0 0 0 0.0352941 0 0 0 0 0.0392157 0 0 0 0.02 0"/>
<feBlend mode="normal" in2="BackgroundImageFix" result="effect1_dropShadow_188_4616"/>
<feColorMatrix in="SourceAlpha" type="matrix" values="0 0 0 0 0 0 0 0 0 0 0 0 0 0 0 0 0 0 127 0" result="hardAlpha"/>
<feOffset dy="2"/>
<feGaussianBlur stdDeviation="1"/>
<feColorMatrix type="matrix" values="0 0 0 0 0.0313726 0 0 0 0 0.0352941 0 0 0 0 0.0392157 0 0 0 0.02 0"/>
<feBlend mode="normal" in2="effect1_dropShadow_188_4616" result="effect2_dropShadow_188_4616"/>
<feColorMatrix in="SourceAlpha" type="matrix" values="0 0 0 0 0 0 0 0 0 0 0 0 0 0 0 0 0 0 127 0" result="hardAlpha"/>
<feOffset dy="5"/>
<feGaussianBlur stdDeviation="1.5"/>
<feColorMatrix type="matrix" values="0 0 0 0 0.0313726 0 0 0 0 0.0352941 0 0 0 0 0.0392157 0 0 0 0.01 0"/>
<feBlend mode="normal" in2="effect2_dropShadow_188_4616" result="effect3_dropShadow_188_4616"/>
<feBlend mode="normal" in="SourceGraphic" in2="effect3_dropShadow_188_4616" result="shape"/>
</filter>
</defs>
</svg>
