<svg width="48" height="50" viewBox="0 0 48 50" fill="none" xmlns="http://www.w3.org/2000/svg">
<g filter="url(#filter0_ddd_14_150)">
<rect x="4" y="1" width="40" height="40" rx="4" fill="#E6E9EE"/>
<rect x="3.5" y="0.5" width="41" height="41" rx="4.5" stroke="#08090A" stroke-opacity="0.06"/>
</g>
<path d="M19.752 16C22.244 16 23.49 17.7733 23.49 21.32C23.49 22.9347 23.1867 24.232 22.58 25.212C21.9733 26.1827 21.0307 26.668 19.752 26.668C18.464 26.668 17.5167 26.1733 16.91 25.184C16.3033 24.1947 16 22.9067 16 21.32C16 19.6867 16.294 18.394 16.882 17.442C17.47 16.4807 18.4267 16 19.752 16ZM19.752 17.414C18.9773 17.414 18.4407 17.764 18.142 18.464C17.8527 19.164 17.708 20.116 17.708 21.32C17.708 22.496 17.8433 23.3967 18.114 24.022L20.424 17.54C20.228 17.456 20.004 17.414 19.752 17.414ZM19.752 25.24C20.5173 25.24 21.0447 24.876 21.334 24.148C21.6327 23.4107 21.782 22.468 21.782 21.32C21.782 19.92 21.6093 18.912 21.264 18.296L18.884 25.002C19.1267 25.1607 19.416 25.24 19.752 25.24Z" fill="#969EB5"/>
<path d="M28.0471 26.5C27.4614 26.5 26.8712 26.42 26.2765 26.26C25.6908 26.0911 25.2654 25.8778 25 25.62L25.6451 24.3533C25.9196 24.5667 26.2673 24.7533 26.6882 24.9133C27.1092 25.0644 27.5392 25.14 27.9784 25.14C29.5431 25.14 30.3255 24.5222 30.3255 23.2867C30.3255 22.7622 30.1105 22.34 29.6804 22.02C29.2595 21.7 28.6876 21.54 27.9647 21.54C27.4614 21.54 27.0359 21.5667 26.6882 21.62L29.2137 17.8067H25.4255V16.5H31.9451L29.0902 20.46C29.6667 20.4778 30.1745 20.6111 30.6137 20.86C31.0621 21.1089 31.4052 21.4378 31.6431 21.8467C31.881 22.2467 32 22.6911 32 23.18C32 23.82 31.8444 24.3933 31.5333 24.9C31.2222 25.3978 30.7693 25.7889 30.1745 26.0733C29.5797 26.3578 28.8706 26.5 28.0471 26.5Z" fill="#2D2C35"/>
<defs>
<filter id="filter0_ddd_14_150" x="0" y="0" width="48" height="50" filterUnits="userSpaceOnUse" color-interpolation-filters="sRGB">
<feFlood flood-opacity="0" result="BackgroundImageFix"/>
<feColorMatrix in="SourceAlpha" type="matrix" values="0 0 0 0 0 0 0 0 0 0 0 0 0 0 0 0 0 0 127 0" result="hardAlpha"/>
<feOffset dy="1"/>
<feGaussianBlur stdDeviation="0.5"/>
<feColorMatrix type="matrix" values="0 0 0 0 0.0313726 0 0 0 0 0.0352941 0 0 0 0 0.0392157 0 0 0 0.02 0"/>
<feBlend mode="normal" in2="BackgroundImageFix" result="effect1_dropShadow_14_150"/>
<feColorMatrix in="SourceAlpha" type="matrix" values="0 0 0 0 0 0 0 0 0 0 0 0 0 0 0 0 0 0 127 0" result="hardAlpha"/>
<feOffset dy="2"/>
<feGaussianBlur stdDeviation="1"/>
<feColorMatrix type="matrix" values="0 0 0 0 0.0313726 0 0 0 0 0.0352941 0 0 0 0 0.0392157 0 0 0 0.02 0"/>
<feBlend mode="normal" in2="effect1_dropShadow_14_150" result="effect2_dropShadow_14_150"/>
<feColorMatrix in="SourceAlpha" type="matrix" values="0 0 0 0 0 0 0 0 0 0 0 0 0 0 0 0 0 0 127 0" result="hardAlpha"/>
<feOffset dy="5"/>
<feGaussianBlur stdDeviation="1.5"/>
<feColorMatrix type="matrix" values="0 0 0 0 0.0313726 0 0 0 0 0.0352941 0 0 0 0 0.0392157 0 0 0 0.01 0"/>
<feBlend mode="normal" in2="effect2_dropShadow_14_150" result="effect3_dropShadow_14_150"/>
<feBlend mode="normal" in="SourceGraphic" in2="effect3_dropShadow_14_150" result="shape"/>
</filter>
</defs>
</svg>
