<svg width="48" height="50" viewBox="0 0 48 50" fill="none" xmlns="http://www.w3.org/2000/svg">
<g filter="url(#filter0_ddd_14_151)">
<rect x="4" y="1" width="40" height="40" rx="4" fill="#E6E9EE"/>
<rect x="3.5" y="0.5" width="41" height="41" rx="4.5" stroke="#08090A" stroke-opacity="0.06"/>
</g>
<path d="M19.752 16C22.244 16 23.49 17.7733 23.49 21.32C23.49 22.9347 23.1867 24.232 22.58 25.212C21.9733 26.1827 21.0307 26.668 19.752 26.668C18.464 26.668 17.5167 26.1733 16.91 25.184C16.3033 24.1947 16 22.9067 16 21.32C16 19.6867 16.294 18.394 16.882 17.442C17.47 16.4807 18.4267 16 19.752 16ZM19.752 17.414C18.9773 17.414 18.4407 17.764 18.142 18.464C17.8527 19.164 17.708 20.116 17.708 21.32C17.708 22.496 17.8433 23.3967 18.114 24.022L20.424 17.54C20.228 17.456 20.004 17.414 19.752 17.414ZM19.752 25.24C20.5173 25.24 21.0447 24.876 21.334 24.148C21.6327 23.4107 21.782 22.468 21.782 21.32C21.782 19.92 21.6093 18.912 21.264 18.296L18.884 25.002C19.1267 25.1607 19.416 25.24 19.752 25.24Z" fill="#969EB5"/>
<path d="M29.2378 24.0789H25L27.6613 16.5L28.973 17.0132L26.9676 22.6974H29.2378L29.3135 20.5H30.7135V22.6974H32V24.0789H30.7135V26.5H29.2378V24.0789Z" fill="#2D2C35"/>
<defs>
<filter id="filter0_ddd_14_151" x="0" y="0" width="48" height="50" filterUnits="userSpaceOnUse" color-interpolation-filters="sRGB">
<feFlood flood-opacity="0" result="BackgroundImageFix"/>
<feColorMatrix in="SourceAlpha" type="matrix" values="0 0 0 0 0 0 0 0 0 0 0 0 0 0 0 0 0 0 127 0" result="hardAlpha"/>
<feOffset dy="1"/>
<feGaussianBlur stdDeviation="0.5"/>
<feColorMatrix type="matrix" values="0 0 0 0 0.0313726 0 0 0 0 0.0352941 0 0 0 0 0.0392157 0 0 0 0.02 0"/>
<feBlend mode="normal" in2="BackgroundImageFix" result="effect1_dropShadow_14_151"/>
<feColorMatrix in="SourceAlpha" type="matrix" values="0 0 0 0 0 0 0 0 0 0 0 0 0 0 0 0 0 0 127 0" result="hardAlpha"/>
<feOffset dy="2"/>
<feGaussianBlur stdDeviation="1"/>
<feColorMatrix type="matrix" values="0 0 0 0 0.0313726 0 0 0 0 0.0352941 0 0 0 0 0.0392157 0 0 0 0.02 0"/>
<feBlend mode="normal" in2="effect1_dropShadow_14_151" result="effect2_dropShadow_14_151"/>
<feColorMatrix in="SourceAlpha" type="matrix" values="0 0 0 0 0 0 0 0 0 0 0 0 0 0 0 0 0 0 127 0" result="hardAlpha"/>
<feOffset dy="5"/>
<feGaussianBlur stdDeviation="1.5"/>
<feColorMatrix type="matrix" values="0 0 0 0 0.0313726 0 0 0 0 0.0352941 0 0 0 0 0.0392157 0 0 0 0.01 0"/>
<feBlend mode="normal" in2="effect2_dropShadow_14_151" result="effect3_dropShadow_14_151"/>
<feBlend mode="normal" in="SourceGraphic" in2="effect3_dropShadow_14_151" result="shape"/>
</filter>
</defs>
</svg>
