<svg width="48" height="50" viewBox="0 0 48 50" fill="none" xmlns="http://www.w3.org/2000/svg">
<g filter="url(#filter0_ddd_14_152)">
<rect x="4" y="1" width="40" height="40" rx="4" fill="#E6E9EE"/>
<rect x="3.5" y="0.5" width="41" height="41" rx="4.5" stroke="#08090A" stroke-opacity="0.06"/>
</g>
<path d="M19.752 16C22.244 16 23.49 17.7733 23.49 21.32C23.49 22.9347 23.1867 24.232 22.58 25.212C21.9733 26.1827 21.0307 26.668 19.752 26.668C18.464 26.668 17.5167 26.1733 16.91 25.184C16.3033 24.1947 16 22.9067 16 21.32C16 19.6867 16.294 18.394 16.882 17.442C17.47 16.4807 18.4267 16 19.752 16ZM19.752 17.414C18.9773 17.414 18.4407 17.764 18.142 18.464C17.8527 19.164 17.708 20.116 17.708 21.32C17.708 22.496 17.8433 23.3967 18.114 24.022L20.424 17.54C20.228 17.456 20.004 17.414 19.752 17.414ZM19.752 25.24C20.5173 25.24 21.0447 24.876 21.334 24.148C21.6327 23.4107 21.782 22.468 21.782 21.32C21.782 19.92 21.6093 18.912 21.264 18.296L18.884 25.002C19.1267 25.1607 19.416 25.24 19.752 25.24Z" fill="#969EB5"/>
<path d="M28.172 26.5C27.556 26.5 26.9867 26.4207 26.464 26.262C25.9507 26.1033 25.5167 25.87 25.162 25.562L25.876 24.246C26.0813 24.4233 26.3847 24.6007 26.786 24.778C27.1873 24.946 27.6353 25.03 28.13 25.03C28.7647 25.03 29.2827 24.8527 29.684 24.498C30.0947 24.134 30.3 23.644 30.3 23.028C30.3 22.4493 30.1133 21.9733 29.74 21.6C29.376 21.2173 28.7833 21.026 27.962 21.026C27.542 21.026 27.1033 21.0633 26.646 21.138C26.1887 21.2127 25.8667 21.3013 25.68 21.404L25.89 16H31.168V17.372H27.416L27.276 19.808C27.5467 19.7333 27.9387 19.696 28.452 19.696C29.5347 19.696 30.384 19.9807 31 20.55C31.6253 21.11 31.938 21.8847 31.938 22.874C31.938 23.5833 31.7887 24.2133 31.49 24.764C31.2007 25.3147 30.7713 25.744 30.202 26.052C29.6327 26.3507 28.956 26.5 28.172 26.5Z" fill="#2D2C35"/>
<defs>
<filter id="filter0_ddd_14_152" x="0" y="0" width="48" height="50" filterUnits="userSpaceOnUse" color-interpolation-filters="sRGB">
<feFlood flood-opacity="0" result="BackgroundImageFix"/>
<feColorMatrix in="SourceAlpha" type="matrix" values="0 0 0 0 0 0 0 0 0 0 0 0 0 0 0 0 0 0 127 0" result="hardAlpha"/>
<feOffset dy="1"/>
<feGaussianBlur stdDeviation="0.5"/>
<feColorMatrix type="matrix" values="0 0 0 0 0.0313726 0 0 0 0 0.0352941 0 0 0 0 0.0392157 0 0 0 0.02 0"/>
<feBlend mode="normal" in2="BackgroundImageFix" result="effect1_dropShadow_14_152"/>
<feColorMatrix in="SourceAlpha" type="matrix" values="0 0 0 0 0 0 0 0 0 0 0 0 0 0 0 0 0 0 127 0" result="hardAlpha"/>
<feOffset dy="2"/>
<feGaussianBlur stdDeviation="1"/>
<feColorMatrix type="matrix" values="0 0 0 0 0.0313726 0 0 0 0 0.0352941 0 0 0 0 0.0392157 0 0 0 0.02 0"/>
<feBlend mode="normal" in2="effect1_dropShadow_14_152" result="effect2_dropShadow_14_152"/>
<feColorMatrix in="SourceAlpha" type="matrix" values="0 0 0 0 0 0 0 0 0 0 0 0 0 0 0 0 0 0 127 0" result="hardAlpha"/>
<feOffset dy="5"/>
<feGaussianBlur stdDeviation="1.5"/>
<feColorMatrix type="matrix" values="0 0 0 0 0.0313726 0 0 0 0 0.0352941 0 0 0 0 0.0392157 0 0 0 0.01 0"/>
<feBlend mode="normal" in2="effect2_dropShadow_14_152" result="effect3_dropShadow_14_152"/>
<feBlend mode="normal" in="SourceGraphic" in2="effect3_dropShadow_14_152" result="shape"/>
</filter>
</defs>
</svg>
