<svg width="48" height="50" viewBox="0 0 48 50" fill="none" xmlns="http://www.w3.org/2000/svg">
<g filter="url(#filter0_ddd_14_153)">
<rect x="4" y="1" width="40" height="40" rx="4" fill="#E6E9EE"/>
<rect x="3.5" y="0.5" width="41" height="41" rx="4.5" stroke="#08090A" stroke-opacity="0.06"/>
</g>
<path d="M19.752 16C22.244 16 23.49 17.7733 23.49 21.32C23.49 22.9347 23.1867 24.232 22.58 25.212C21.9733 26.1827 21.0307 26.668 19.752 26.668C18.464 26.668 17.5167 26.1733 16.91 25.184C16.3033 24.1947 16 22.9067 16 21.32C16 19.6867 16.294 18.394 16.882 17.442C17.47 16.4807 18.4267 16 19.752 16ZM19.752 17.414C18.9773 17.414 18.4407 17.764 18.142 18.464C17.8527 19.164 17.708 20.116 17.708 21.32C17.708 22.496 17.8433 23.3967 18.114 24.022L20.424 17.54C20.228 17.456 20.004 17.414 19.752 17.414ZM19.752 25.24C20.5173 25.24 21.0447 24.876 21.334 24.148C21.6327 23.4107 21.782 22.468 21.782 21.32C21.782 19.92 21.6093 18.912 21.264 18.296L18.884 25.002C19.1267 25.1607 19.416 25.24 19.752 25.24Z" fill="#969EB5"/>
<path d="M28.48 26.85C27.8453 26.85 27.262 26.7147 26.73 26.444C26.2073 26.164 25.792 25.7673 25.484 25.254C25.1853 24.7313 25.036 24.1247 25.036 23.434C25.036 22.9487 25.1107 22.4727 25.26 22.006C25.4093 21.53 25.7267 20.8487 26.212 19.962C26.6973 19.0753 27.472 17.7547 28.536 16L29.88 16.784C28.9653 18.1653 28.242 19.3227 27.71 20.256C27.6727 20.3213 27.6353 20.3867 27.598 20.452C27.5607 20.5173 27.528 20.564 27.5 20.592C27.6493 20.452 27.85 20.34 28.102 20.256C28.354 20.172 28.6433 20.13 28.97 20.13C29.586 20.13 30.132 20.2793 30.608 20.578C31.084 20.8673 31.448 21.2593 31.7 21.754C31.9613 22.2393 32.092 22.7667 32.092 23.336C32.092 24.064 31.938 24.694 31.63 25.226C31.322 25.758 30.8927 26.164 30.342 26.444C29.8007 26.7147 29.18 26.85 28.48 26.85ZM28.578 25.478C29.166 25.478 29.628 25.2913 29.964 24.918C30.3093 24.5447 30.482 24.064 30.482 23.476C30.482 22.86 30.3047 22.3747 29.95 22.02C29.6047 21.656 29.1613 21.474 28.62 21.474C28.0227 21.474 27.542 21.656 27.178 22.02C26.8233 22.384 26.646 22.8787 26.646 23.504C26.646 24.0733 26.828 24.5447 27.192 24.918C27.5653 25.2913 28.0273 25.478 28.578 25.478Z" fill="#2D2C35"/>
<defs>
<filter id="filter0_ddd_14_153" x="0" y="0" width="48" height="50" filterUnits="userSpaceOnUse" color-interpolation-filters="sRGB">
<feFlood flood-opacity="0" result="BackgroundImageFix"/>
<feColorMatrix in="SourceAlpha" type="matrix" values="0 0 0 0 0 0 0 0 0 0 0 0 0 0 0 0 0 0 127 0" result="hardAlpha"/>
<feOffset dy="1"/>
<feGaussianBlur stdDeviation="0.5"/>
<feColorMatrix type="matrix" values="0 0 0 0 0.0313726 0 0 0 0 0.0352941 0 0 0 0 0.0392157 0 0 0 0.02 0"/>
<feBlend mode="normal" in2="BackgroundImageFix" result="effect1_dropShadow_14_153"/>
<feColorMatrix in="SourceAlpha" type="matrix" values="0 0 0 0 0 0 0 0 0 0 0 0 0 0 0 0 0 0 127 0" result="hardAlpha"/>
<feOffset dy="2"/>
<feGaussianBlur stdDeviation="1"/>
<feColorMatrix type="matrix" values="0 0 0 0 0.0313726 0 0 0 0 0.0352941 0 0 0 0 0.0392157 0 0 0 0.02 0"/>
<feBlend mode="normal" in2="effect1_dropShadow_14_153" result="effect2_dropShadow_14_153"/>
<feColorMatrix in="SourceAlpha" type="matrix" values="0 0 0 0 0 0 0 0 0 0 0 0 0 0 0 0 0 0 127 0" result="hardAlpha"/>
<feOffset dy="5"/>
<feGaussianBlur stdDeviation="1.5"/>
<feColorMatrix type="matrix" values="0 0 0 0 0.0313726 0 0 0 0 0.0352941 0 0 0 0 0.0392157 0 0 0 0.01 0"/>
<feBlend mode="normal" in2="effect2_dropShadow_14_153" result="effect3_dropShadow_14_153"/>
<feBlend mode="normal" in="SourceGraphic" in2="effect3_dropShadow_14_153" result="shape"/>
</filter>
</defs>
</svg>
