<svg width="48" height="50" viewBox="0 0 48 50" fill="none" xmlns="http://www.w3.org/2000/svg">
<g filter="url(#filter0_ddd_14_155)">
<rect x="4" y="1" width="40" height="40" rx="4" fill="#E6E9EE"/>
<rect x="3.5" y="0.5" width="41" height="41" rx="4.5" stroke="#08090A" stroke-opacity="0.06"/>
</g>
<path d="M19.752 16C22.244 16 23.49 17.7733 23.49 21.32C23.49 22.9347 23.1867 24.232 22.58 25.212C21.9733 26.1827 21.0307 26.668 19.752 26.668C18.464 26.668 17.5167 26.1733 16.91 25.184C16.3033 24.1947 16 22.9067 16 21.32C16 19.6867 16.294 18.394 16.882 17.442C17.47 16.4807 18.4267 16 19.752 16ZM19.752 17.414C18.9773 17.414 18.4407 17.764 18.142 18.464C17.8527 19.164 17.708 20.116 17.708 21.32C17.708 22.496 17.8433 23.3967 18.114 24.022L20.424 17.54C20.228 17.456 20.004 17.414 19.752 17.414ZM19.752 25.24C20.5173 25.24 21.0447 24.876 21.334 24.148C21.6327 23.4107 21.782 22.468 21.782 21.32C21.782 19.92 21.6093 18.912 21.264 18.296L18.884 25.002C19.1267 25.1607 19.416 25.24 19.752 25.24Z" fill="#969EB5"/>
<path d="M28.508 26.668C27.8547 26.668 27.2574 26.5373 26.716 26.276C26.1747 26.0147 25.7454 25.646 25.428 25.17C25.1107 24.6847 24.952 24.1247 24.952 23.49C24.952 22.8273 25.106 22.2813 25.414 21.852C25.7314 21.4227 26.1327 21.1053 26.618 20.9C26.254 20.6853 25.9554 20.396 25.722 20.032C25.498 19.6587 25.386 19.2433 25.386 18.786C25.386 18.226 25.5214 17.736 25.792 17.316C26.0627 16.896 26.436 16.574 26.912 16.35C27.388 16.1167 27.92 16 28.508 16C29.096 16 29.628 16.1167 30.104 16.35C30.58 16.574 30.9534 16.896 31.224 17.316C31.4947 17.7267 31.63 18.2073 31.63 18.758C31.63 19.262 31.5087 19.696 31.266 20.06C31.0327 20.4147 30.7247 20.6993 30.342 20.914C30.8367 21.1287 31.2474 21.4507 31.574 21.88C31.9007 22.3 32.064 22.8367 32.064 23.49C32.064 24.1247 31.9054 24.6847 31.588 25.17C31.2707 25.646 30.8367 26.0147 30.286 26.276C29.7447 26.5373 29.152 26.668 28.508 26.668ZM28.508 20.256C28.928 20.256 29.2874 20.1067 29.586 19.808C29.8847 19.5 30.034 19.136 30.034 18.716C30.034 18.2773 29.894 17.9227 29.614 17.652C29.334 17.372 28.9654 17.232 28.508 17.232C28.0414 17.232 27.668 17.372 27.388 17.652C27.108 17.9227 26.968 18.2773 26.968 18.716C26.968 19.1453 27.1127 19.5093 27.402 19.808C27.6914 20.1067 28.06 20.256 28.508 20.256ZM28.508 25.296C29.096 25.296 29.5674 25.1233 29.922 24.778C30.286 24.4233 30.468 23.98 30.468 23.448C30.468 22.916 30.2814 22.4773 29.908 22.132C29.5347 21.7773 29.068 21.6 28.508 21.6C27.9387 21.6 27.4674 21.7727 27.094 22.118C26.7207 22.454 26.534 22.8973 26.534 23.448C26.534 23.98 26.7114 24.4233 27.066 24.778C27.43 25.1233 27.9107 25.296 28.508 25.296Z" fill="#2D2C35"/>
<defs>
<filter id="filter0_ddd_14_155" x="0" y="0" width="48" height="50" filterUnits="userSpaceOnUse" color-interpolation-filters="sRGB">
<feFlood flood-opacity="0" result="BackgroundImageFix"/>
<feColorMatrix in="SourceAlpha" type="matrix" values="0 0 0 0 0 0 0 0 0 0 0 0 0 0 0 0 0 0 127 0" result="hardAlpha"/>
<feOffset dy="1"/>
<feGaussianBlur stdDeviation="0.5"/>
<feColorMatrix type="matrix" values="0 0 0 0 0.0313726 0 0 0 0 0.0352941 0 0 0 0 0.0392157 0 0 0 0.02 0"/>
<feBlend mode="normal" in2="BackgroundImageFix" result="effect1_dropShadow_14_155"/>
<feColorMatrix in="SourceAlpha" type="matrix" values="0 0 0 0 0 0 0 0 0 0 0 0 0 0 0 0 0 0 127 0" result="hardAlpha"/>
<feOffset dy="2"/>
<feGaussianBlur stdDeviation="1"/>
<feColorMatrix type="matrix" values="0 0 0 0 0.0313726 0 0 0 0 0.0352941 0 0 0 0 0.0392157 0 0 0 0.02 0"/>
<feBlend mode="normal" in2="effect1_dropShadow_14_155" result="effect2_dropShadow_14_155"/>
<feColorMatrix in="SourceAlpha" type="matrix" values="0 0 0 0 0 0 0 0 0 0 0 0 0 0 0 0 0 0 127 0" result="hardAlpha"/>
<feOffset dy="5"/>
<feGaussianBlur stdDeviation="1.5"/>
<feColorMatrix type="matrix" values="0 0 0 0 0.0313726 0 0 0 0 0.0352941 0 0 0 0 0.0392157 0 0 0 0.01 0"/>
<feBlend mode="normal" in2="effect2_dropShadow_14_155" result="effect3_dropShadow_14_155"/>
<feBlend mode="normal" in="SourceGraphic" in2="effect3_dropShadow_14_155" result="shape"/>
</filter>
</defs>
</svg>
