<svg width="48" height="50" viewBox="0 0 48 50" fill="none" xmlns="http://www.w3.org/2000/svg">
<g filter="url(#filter0_ddd_14_156)">
<rect x="4" y="1" width="40" height="40" rx="4" fill="#E6E9EE"/>
<rect x="3.5" y="0.5" width="41" height="41" rx="4.5" stroke="#08090A" stroke-opacity="0.06"/>
</g>
<path d="M19.752 16C22.244 16 23.49 17.7733 23.49 21.32C23.49 22.9347 23.1867 24.232 22.58 25.212C21.9733 26.1827 21.0307 26.668 19.752 26.668C18.464 26.668 17.5167 26.1733 16.91 25.184C16.3033 24.1947 16 22.9067 16 21.32C16 19.6867 16.294 18.394 16.882 17.442C17.47 16.4807 18.4267 16 19.752 16ZM19.752 17.414C18.9773 17.414 18.4407 17.764 18.142 18.464C17.8527 19.164 17.708 20.116 17.708 21.32C17.708 22.496 17.8433 23.3967 18.114 24.022L20.424 17.54C20.228 17.456 20.004 17.414 19.752 17.414ZM19.752 25.24C20.5173 25.24 21.0447 24.876 21.334 24.148C21.6327 23.4107 21.782 22.468 21.782 21.32C21.782 19.92 21.6093 18.912 21.264 18.296L18.884 25.002C19.1267 25.1607 19.416 25.24 19.752 25.24Z" fill="#969EB5"/>
<path d="M28.956 23.308C28.9934 23.2427 29.096 23.07 29.264 22.79C29.432 22.51 29.5627 22.314 29.656 22.202C29.3107 22.51 28.8114 22.664 28.158 22.664C27.542 22.664 26.9914 22.5193 26.506 22.23C26.03 21.9407 25.6567 21.544 25.386 21.04C25.1247 20.536 24.994 19.976 24.994 19.36C24.994 18.6973 25.148 18.114 25.456 17.61C25.764 17.0967 26.1934 16.7 26.744 16.42C27.304 16.14 27.948 16 28.676 16C29.3107 16 29.8894 16.14 30.412 16.42C30.9347 16.6907 31.3454 17.0873 31.644 17.61C31.952 18.1327 32.106 18.7393 32.106 19.43C32.106 19.878 32.0454 20.312 31.924 20.732C31.8027 21.152 31.5227 21.7913 31.084 22.65C30.6454 23.5087 29.9407 24.778 28.97 26.458H27.15L28.956 23.308ZM28.536 21.32C29.1054 21.32 29.572 21.1473 29.936 20.802C30.3094 20.4567 30.496 19.9853 30.496 19.388C30.496 18.7907 30.314 18.3053 29.95 17.932C29.586 17.5493 29.1287 17.358 28.578 17.358C27.9807 17.358 27.5 17.5493 27.136 17.932C26.7814 18.3053 26.604 18.786 26.604 19.374C26.604 19.9807 26.7907 20.4567 27.164 20.802C27.5374 21.1473 27.9947 21.32 28.536 21.32Z" fill="#2D2C35"/>
<defs>
<filter id="filter0_ddd_14_156" x="0" y="0" width="48" height="50" filterUnits="userSpaceOnUse" color-interpolation-filters="sRGB">
<feFlood flood-opacity="0" result="BackgroundImageFix"/>
<feColorMatrix in="SourceAlpha" type="matrix" values="0 0 0 0 0 0 0 0 0 0 0 0 0 0 0 0 0 0 127 0" result="hardAlpha"/>
<feOffset dy="1"/>
<feGaussianBlur stdDeviation="0.5"/>
<feColorMatrix type="matrix" values="0 0 0 0 0.0313726 0 0 0 0 0.0352941 0 0 0 0 0.0392157 0 0 0 0.02 0"/>
<feBlend mode="normal" in2="BackgroundImageFix" result="effect1_dropShadow_14_156"/>
<feColorMatrix in="SourceAlpha" type="matrix" values="0 0 0 0 0 0 0 0 0 0 0 0 0 0 0 0 0 0 127 0" result="hardAlpha"/>
<feOffset dy="2"/>
<feGaussianBlur stdDeviation="1"/>
<feColorMatrix type="matrix" values="0 0 0 0 0.0313726 0 0 0 0 0.0352941 0 0 0 0 0.0392157 0 0 0 0.02 0"/>
<feBlend mode="normal" in2="effect1_dropShadow_14_156" result="effect2_dropShadow_14_156"/>
<feColorMatrix in="SourceAlpha" type="matrix" values="0 0 0 0 0 0 0 0 0 0 0 0 0 0 0 0 0 0 127 0" result="hardAlpha"/>
<feOffset dy="5"/>
<feGaussianBlur stdDeviation="1.5"/>
<feColorMatrix type="matrix" values="0 0 0 0 0.0313726 0 0 0 0 0.0352941 0 0 0 0 0.0392157 0 0 0 0.01 0"/>
<feBlend mode="normal" in2="effect2_dropShadow_14_156" result="effect3_dropShadow_14_156"/>
<feBlend mode="normal" in="SourceGraphic" in2="effect3_dropShadow_14_156" result="shape"/>
</filter>
</defs>
</svg>
