<svg width="48" height="50" viewBox="0 0 48 50" fill="none" xmlns="http://www.w3.org/2000/svg">
<g filter="url(#filter0_ddd_36_561)">
<rect x="4" y="1" width="40" height="40" rx="4" fill="#E6E9EE"/>
<rect x="3.5" y="0.5" width="41" height="41" rx="4.5" stroke="#08090A" stroke-opacity="0.06"/>
</g>
<path fill-rule="evenodd" clip-rule="evenodd" d="M19.8457 17.0368C20.3133 15.8886 21.7576 15.5961 22.6099 16.477L28.0408 22.0899C28.8848 22.9622 28.6169 24.4385 27.5245 24.9355L18.0527 29.2449C16.6481 29.884 15.2093 28.4211 15.8047 26.9591L19.8457 17.0368ZM21.4099 17.7173L17.3689 27.6396L26.8407 23.3302L21.4099 17.7173Z" fill="#2D2C35"/>
<path fill-rule="evenodd" clip-rule="evenodd" d="M30.623 13.8246C30.6175 13.7472 30.6099 13.6378 30.6099 13.5436C30.6099 13.0593 30.9898 12.6666 31.4584 12.6666C31.9271 12.6666 32.307 13.0593 32.307 13.5436C32.307 13.5699 32.3096 13.608 32.3161 13.7037C32.3167 13.7131 32.3174 13.7231 32.3181 13.7337C32.325 13.8344 32.3335 13.9693 32.3335 14.1175C32.3335 14.4094 32.3017 14.8086 32.1241 15.2101C31.7171 16.1303 30.7793 16.6132 29.337 16.6132C28.1298 16.6132 27.8388 16.883 27.7722 16.9692C27.6735 17.0967 27.6399 17.3032 27.6399 17.9287C27.6399 18.4131 27.26 18.8057 26.7913 18.8057C26.3227 18.8057 25.9428 18.4131 25.9428 17.9287C25.9428 17.9037 25.9427 17.8774 25.9426 17.8501C25.9408 17.3639 25.9378 16.5312 26.4469 15.8735C27.0167 15.1374 27.9985 14.8592 29.337 14.8592C30.4179 14.8592 30.5579 14.5335 30.5794 14.4836C30.5799 14.4825 30.5803 14.4816 30.5806 14.4808C30.6151 14.4027 30.6364 14.288 30.6364 14.1175C30.6364 14.0344 30.6316 13.9509 30.6252 13.8567C30.6245 13.8469 30.6238 13.8361 30.623 13.8246Z" fill="#969EB5"/>
<path fill-rule="evenodd" clip-rule="evenodd" d="M31.3492 18.8685C31.7843 19.0484 31.9959 19.5588 31.8219 20.0085C31.6091 20.5584 31.2377 20.9223 30.7571 21.085C30.3455 21.2242 29.9275 21.1854 29.6733 21.158C29.594 21.1495 29.5265 21.1417 29.4681 21.135C29.3165 21.1175 29.2265 21.1072 29.1502 21.1088C28.889 21.4461 28.4202 21.5403 28.0518 21.3118C27.6499 21.0626 27.5196 20.5239 27.7607 20.1086C28.0695 19.5767 28.5538 19.4011 28.9538 19.3642C29.2312 19.3386 29.5463 19.377 29.7476 19.4015C29.7859 19.4062 29.8201 19.4103 29.8491 19.4134C30.0761 19.4379 30.1732 19.4315 30.2157 19.4217C30.2227 19.4101 30.2335 19.3898 30.2462 19.3571C30.4202 18.9074 30.914 18.6886 31.3492 18.8685Z" fill="#969EB5"/>
<path fill-rule="evenodd" clip-rule="evenodd" d="M25.3911 12.7303C25.8638 12.6266 26.3521 12.9066 26.4816 13.3558C26.645 13.9225 26.5854 14.4453 26.2608 14.8708C25.9808 15.2378 25.5692 15.4324 25.3274 15.5426C25.2465 15.5794 25.1791 15.6095 25.1223 15.6349C24.9999 15.6895 24.9263 15.7223 24.8714 15.7543C24.8738 16.172 24.5429 16.5217 24.0911 16.5562C23.6045 16.5934 23.162 16.251 23.1028 15.7915C23.0677 15.5192 23.1029 15.2531 23.2205 15.0086C23.335 14.7705 23.5054 14.5991 23.6669 14.4761C23.9032 14.2962 24.2195 14.1582 24.4104 14.0748C24.4457 14.0594 24.4767 14.0459 24.5021 14.0343C24.6117 13.9844 24.6856 13.9463 24.7401 13.9114C24.7688 13.893 24.7858 13.8794 24.795 13.8711C24.7953 13.849 24.791 13.8059 24.7696 13.7316C24.6401 13.2824 24.9183 12.8341 25.3911 12.7303ZM24.7917 13.8903C24.7911 13.8898 24.7914 13.8851 24.7947 13.8778C24.794 13.8872 24.7924 13.8909 24.7917 13.8903Z" fill="#969EB5"/>
<defs>
<filter id="filter0_ddd_36_561" x="0" y="0" width="48" height="50" filterUnits="userSpaceOnUse" color-interpolation-filters="sRGB">
<feFlood flood-opacity="0" result="BackgroundImageFix"/>
<feColorMatrix in="SourceAlpha" type="matrix" values="0 0 0 0 0 0 0 0 0 0 0 0 0 0 0 0 0 0 127 0" result="hardAlpha"/>
<feOffset dy="1"/>
<feGaussianBlur stdDeviation="0.5"/>
<feColorMatrix type="matrix" values="0 0 0 0 0.0313726 0 0 0 0 0.0352941 0 0 0 0 0.0392157 0 0 0 0.02 0"/>
<feBlend mode="normal" in2="BackgroundImageFix" result="effect1_dropShadow_36_561"/>
<feColorMatrix in="SourceAlpha" type="matrix" values="0 0 0 0 0 0 0 0 0 0 0 0 0 0 0 0 0 0 127 0" result="hardAlpha"/>
<feOffset dy="2"/>
<feGaussianBlur stdDeviation="1"/>
<feColorMatrix type="matrix" values="0 0 0 0 0.0313726 0 0 0 0 0.0352941 0 0 0 0 0.0392157 0 0 0 0.02 0"/>
<feBlend mode="normal" in2="effect1_dropShadow_36_561" result="effect2_dropShadow_36_561"/>
<feColorMatrix in="SourceAlpha" type="matrix" values="0 0 0 0 0 0 0 0 0 0 0 0 0 0 0 0 0 0 127 0" result="hardAlpha"/>
<feOffset dy="5"/>
<feGaussianBlur stdDeviation="1.5"/>
<feColorMatrix type="matrix" values="0 0 0 0 0.0313726 0 0 0 0 0.0352941 0 0 0 0 0.0392157 0 0 0 0.01 0"/>
<feBlend mode="normal" in2="effect2_dropShadow_36_561" result="effect3_dropShadow_36_561"/>
<feBlend mode="normal" in="SourceGraphic" in2="effect3_dropShadow_36_561" result="shape"/>
</filter>
</defs>
</svg>
