<svg width="24" height="24" viewBox="0 0 24 24" fill="none" xmlns="http://www.w3.org/2000/svg">
<g opacity="0.2">
<path fill-rule="evenodd" clip-rule="evenodd" d="M19.9316 3.05241C19.9316 3.16545 19.9408 3.29674 19.9474 3.38962L19.9501 3.42815C19.9577 3.5411 19.9635 3.64132 19.9635 3.74101C19.9635 3.94568 19.938 4.08333 19.8965 4.17704L19.8951 4.18035C19.8693 4.24029 19.7013 4.63104 18.4042 4.63104C16.798 4.63103 15.6198 4.96495 14.9361 5.84821C14.3252 6.6375 14.3288 7.63672 14.3309 8.22022L14.3311 8.31448C14.3311 8.89572 14.787 9.3669 15.3494 9.3669C15.9118 9.3669 16.3677 8.89572 16.3677 8.31448C16.3677 7.56383 16.408 7.3161 16.5264 7.16308C16.6064 7.05971 16.9556 6.73586 18.4042 6.73586C20.1349 6.73586 21.2603 6.15643 21.7487 5.05214C21.9618 4.57031 22 4.09131 22 3.74101C22 3.5632 21.9898 3.40134 21.9816 3.28048L21.9791 3.24443C21.9713 3.12966 21.9682 3.08398 21.9682 3.05241C21.9682 2.47118 21.5123 2 20.9499 2C20.3875 2 19.9316 2.47118 19.9316 3.05241ZM10.3319 6.57236C9.30913 5.51529 7.57596 5.86629 7.01481 7.24413L2.16566 19.1509C1.45117 20.9053 3.17764 22.6608 4.86323 21.8939L16.2294 16.7226C17.5403 16.1262 17.8617 14.3546 16.8489 13.3079L10.3319 6.57236ZM4.0427 19.9675L8.89186 8.0607L15.4089 14.7962L4.0427 19.9675ZM20.8189 9.44219C21.3411 9.65805 21.5951 10.2705 21.3862 10.8102C21.1308 11.4701 20.6852 11.9068 20.1084 12.1019C19.6145 12.2691 19.1129 12.2225 18.8078 12.1896C18.7129 12.1794 18.6321 12.1701 18.5622 12.162L18.5621 12.162L18.5617 12.162C18.3798 12.141 18.2717 12.1286 18.1802 12.1305C17.8667 12.5353 17.3042 12.6483 16.862 12.3742C16.3798 12.0751 16.2234 11.4287 16.5128 10.9303C16.8833 10.292 17.4645 10.0814 17.9445 10.0371C18.2774 10.0064 18.6555 10.0524 18.8971 10.0818L18.8973 10.0818C18.9431 10.0874 18.9841 10.0924 19.0188 10.0961C19.2912 10.1254 19.4078 10.1178 19.4588 10.106C19.4672 10.0921 19.4801 10.0677 19.4953 10.0285C19.7042 9.48881 20.2968 9.22633 20.8189 9.44219ZM14.9779 2.82692C14.8225 2.28788 14.2366 1.95185 13.6693 2.07639C13.102 2.20093 12.7681 2.73888 12.9236 3.27793C12.9493 3.36703 12.9544 3.41879 12.954 3.44532C12.9429 3.45525 12.9226 3.47157 12.8881 3.49369C12.8228 3.5356 12.734 3.58126 12.6026 3.64113C12.5721 3.65503 12.5349 3.67127 12.4926 3.68974L12.4925 3.68975C12.2634 3.78979 11.8838 3.95548 11.6003 4.17131C11.4065 4.3189 11.202 4.52459 11.0646 4.8103C10.9235 5.10366 10.8813 5.42309 10.9234 5.74977C10.9944 6.30121 11.5254 6.71207 12.1093 6.66743C12.6515 6.62599 13.0486 6.20642 13.0457 5.70521C13.1115 5.66675 13.1999 5.62735 13.3467 5.56182C13.415 5.53138 13.4958 5.49531 13.5929 5.45108C13.883 5.31891 14.377 5.08537 14.713 4.64494C15.1025 4.13441 15.174 3.50697 14.9779 2.82692ZM12.9501 3.4684C12.9493 3.46777 12.9497 3.46212 12.9536 3.45334C12.9528 3.46464 12.9509 3.46903 12.9501 3.4684Z" fill="#2D2C35"/>
</g>
</svg>
