<svg width="16" height="11" viewBox="0 0 16 11" fill="none" xmlns="http://www.w3.org/2000/svg">
<path d="M3.752 0C6.244 0 7.49 1.77333 7.49 5.32C7.49 6.93467 7.18667 8.232 6.58 9.212C5.97333 10.1827 5.03067 10.668 3.752 10.668C2.464 10.668 1.51667 10.1733 0.91 9.184C0.303333 8.19467 0 6.90667 0 5.32C0 3.68667 0.294 2.394 0.882 1.442C1.47 0.480667 2.42667 0 3.752 0ZM3.752 1.414C2.97733 1.414 2.44067 1.764 2.142 2.464C1.85267 3.164 1.708 4.116 1.708 5.32C1.708 6.496 1.84333 7.39667 2.114 8.022L4.424 1.54C4.228 1.456 4.004 1.414 3.752 1.414ZM3.752 9.24C4.51733 9.24 5.04467 8.876 5.334 8.148C5.63267 7.41067 5.782 6.468 5.782 5.32C5.782 3.92 5.60933 2.912 5.264 2.296L2.884 9.002C3.12667 9.16067 3.416 9.24 3.752 9.24Z" fill="#726E98"/>
<path d="M12.0471 10.5C11.4614 10.5 10.8712 10.42 10.2765 10.26C9.69085 10.0911 9.26536 9.87778 9 9.62L9.6451 8.35333C9.91961 8.56667 10.2673 8.75333 10.6882 8.91333C11.1092 9.06444 11.5392 9.14 11.9784 9.14C13.5431 9.14 14.3255 8.52222 14.3255 7.28667C14.3255 6.76222 14.1105 6.34 13.6804 6.02C13.2595 5.7 12.6876 5.54 11.9647 5.54C11.4614 5.54 11.0359 5.56667 10.6882 5.62L13.2137 1.80667H9.42549V0.5H15.9451L13.0902 4.46C13.6667 4.47778 14.1745 4.61111 14.6137 4.86C15.0621 5.10889 15.4052 5.43778 15.6431 5.84667C15.881 6.24667 16 6.69111 16 7.18C16 7.82 15.8444 8.39333 15.5333 8.9C15.2222 9.39778 14.7693 9.78889 14.1745 10.0733C13.5797 10.3578 12.8706 10.5 12.0471 10.5Z" fill="#D0CFDD"/>
</svg>
