<svg width="16" height="11" viewBox="0 0 16 11" fill="none" xmlns="http://www.w3.org/2000/svg">
<path d="M3.752 0C6.244 0 7.49 1.77333 7.49 5.32C7.49 6.93467 7.18667 8.232 6.58 9.212C5.97333 10.1827 5.03067 10.668 3.752 10.668C2.464 10.668 1.51667 10.1733 0.91 9.184C0.303333 8.19467 0 6.90667 0 5.32C0 3.68667 0.294 2.394 0.882 1.442C1.47 0.480667 2.42667 0 3.752 0ZM3.752 1.414C2.97733 1.414 2.44067 1.764 2.142 2.464C1.85267 3.164 1.708 4.116 1.708 5.32C1.708 6.496 1.84333 7.39667 2.114 8.022L4.424 1.54C4.228 1.456 4.004 1.414 3.752 1.414ZM3.752 9.24C4.51733 9.24 5.04467 8.876 5.334 8.148C5.63267 7.41067 5.782 6.468 5.782 5.32C5.782 3.92 5.60933 2.912 5.264 2.296L2.884 9.002C3.12667 9.16067 3.416 9.24 3.752 9.24Z" fill="#726E98"/>
<path d="M12.172 10.5C11.556 10.5 10.9867 10.4207 10.464 10.262C9.95065 10.1033 9.51665 9.87 9.16199 9.562L9.87599 8.246C10.0813 8.42333 10.3847 8.60067 10.786 8.778C11.1873 8.946 11.6353 9.03 12.13 9.03C12.7647 9.03 13.2827 8.85267 13.684 8.498C14.0947 8.134 14.3 7.644 14.3 7.028C14.3 6.44933 14.1133 5.97333 13.74 5.6C13.376 5.21733 12.7833 5.026 11.962 5.026C11.542 5.026 11.1033 5.06333 10.646 5.138C10.1887 5.21267 9.86665 5.30133 9.67999 5.404L9.88999 0H15.168V1.372H11.416L11.276 3.808C11.5467 3.73333 11.9387 3.696 12.452 3.696C13.5347 3.696 14.384 3.98067 15 4.55C15.6253 5.11 15.938 5.88467 15.938 6.874C15.938 7.58333 15.7887 8.21333 15.49 8.764C15.2007 9.31467 14.7713 9.744 14.202 10.052C13.6327 10.3507 12.956 10.5 12.172 10.5Z" fill="#D0CFDD"/>
</svg>
