<svg width="17" height="11" viewBox="0 0 17 11" fill="none" xmlns="http://www.w3.org/2000/svg">
<path d="M3.752 0C6.244 0 7.49 1.77333 7.49 5.32C7.49 6.93467 7.18667 8.232 6.58 9.212C5.97333 10.1827 5.03067 10.668 3.752 10.668C2.464 10.668 1.51667 10.1733 0.91 9.184C0.303333 8.19467 0 6.90667 0 5.32C0 3.68667 0.294 2.394 0.882 1.442C1.47 0.480667 2.42667 0 3.752 0ZM3.752 1.414C2.97733 1.414 2.44067 1.764 2.142 2.464C1.85267 3.164 1.708 4.116 1.708 5.32C1.708 6.496 1.84333 7.39667 2.114 8.022L4.424 1.54C4.228 1.456 4.004 1.414 3.752 1.414ZM3.752 9.24C4.51733 9.24 5.04467 8.876 5.334 8.148C5.63267 7.41067 5.782 6.468 5.782 5.32C5.782 3.92 5.60933 2.912 5.264 2.296L2.884 9.002C3.12667 9.16067 3.416 9.24 3.752 9.24Z" fill="#726E98"/>
<path d="M12.48 10.85C11.8453 10.85 11.262 10.7147 10.73 10.444C10.2073 10.164 9.79201 9.76733 9.48401 9.254C9.18534 8.73133 9.03601 8.12467 9.03601 7.434C9.03601 6.94867 9.11068 6.47267 9.26001 6.006C9.40934 5.53 9.72668 4.84867 10.212 3.962C10.6973 3.07533 11.472 1.75467 12.536 0L13.88 0.784C12.9653 2.16533 12.242 3.32267 11.71 4.256C11.6727 4.32133 11.6353 4.38667 11.598 4.452C11.5607 4.51733 11.528 4.564 11.5 4.592C11.6493 4.452 11.85 4.34 12.102 4.256C12.354 4.172 12.6433 4.13 12.97 4.13C13.586 4.13 14.132 4.27933 14.608 4.578C15.084 4.86733 15.448 5.25933 15.7 5.754C15.9613 6.23933 16.092 6.76667 16.092 7.336C16.092 8.064 15.938 8.694 15.63 9.226C15.322 9.758 14.8927 10.164 14.342 10.444C13.8007 10.7147 13.18 10.85 12.48 10.85ZM12.578 9.478C13.166 9.478 13.628 9.29133 13.964 8.918C14.3093 8.54467 14.482 8.064 14.482 7.476C14.482 6.86 14.3047 6.37467 13.95 6.02C13.6047 5.656 13.1613 5.474 12.62 5.474C12.0227 5.474 11.542 5.656 11.178 6.02C10.8233 6.384 10.646 6.87867 10.646 7.504C10.646 8.07333 10.828 8.54467 11.192 8.918C11.5653 9.29133 12.0273 9.478 12.578 9.478Z" fill="#D0CFDD"/>
</svg>
