<svg width="17" height="11" viewBox="0 0 17 11" fill="none" xmlns="http://www.w3.org/2000/svg">
<path d="M3.752 0C6.244 0 7.49 1.77333 7.49 5.32C7.49 6.93467 7.18667 8.232 6.58 9.212C5.97333 10.1827 5.03067 10.668 3.752 10.668C2.464 10.668 1.51667 10.1733 0.91 9.184C0.303333 8.19467 0 6.90667 0 5.32C0 3.68667 0.294 2.394 0.882 1.442C1.47 0.480667 2.42667 0 3.752 0ZM3.752 1.414C2.97733 1.414 2.44067 1.764 2.142 2.464C1.85267 3.164 1.708 4.116 1.708 5.32C1.708 6.496 1.84333 7.39667 2.114 8.022L4.424 1.54C4.228 1.456 4.004 1.414 3.752 1.414ZM3.752 9.24C4.51733 9.24 5.04467 8.876 5.334 8.148C5.63267 7.41067 5.782 6.468 5.782 5.32C5.782 3.92 5.60933 2.912 5.264 2.296L2.884 9.002C3.12667 9.16067 3.416 9.24 3.752 9.24Z" fill="#726E98"/>
<path d="M12.508 10.668C11.8547 10.668 11.2574 10.5373 10.716 10.276C10.1747 10.0147 9.74536 9.646 9.42803 9.17C9.11069 8.68467 8.95203 8.12467 8.95203 7.49C8.95203 6.82733 9.10603 6.28133 9.41403 5.852C9.73136 5.42267 10.1327 5.10533 10.618 4.9C10.254 4.68533 9.95536 4.396 9.72203 4.032C9.49803 3.65867 9.38603 3.24333 9.38603 2.786C9.38603 2.226 9.52136 1.736 9.79203 1.316C10.0627 0.896 10.436 0.574 10.912 0.35C11.388 0.116667 11.92 0 12.508 0C13.096 0 13.628 0.116667 14.104 0.35C14.58 0.574 14.9534 0.896 15.224 1.316C15.4947 1.72667 15.63 2.20733 15.63 2.758C15.63 3.262 15.5087 3.696 15.266 4.06C15.0327 4.41467 14.7247 4.69933 14.342 4.914C14.8367 5.12867 15.2474 5.45067 15.574 5.88C15.9007 6.3 16.064 6.83667 16.064 7.49C16.064 8.12467 15.9054 8.68467 15.588 9.17C15.2707 9.646 14.8367 10.0147 14.286 10.276C13.7447 10.5373 13.152 10.668 12.508 10.668ZM12.508 4.256C12.928 4.256 13.2874 4.10667 13.586 3.808C13.8847 3.5 14.034 3.136 14.034 2.716C14.034 2.27733 13.894 1.92267 13.614 1.652C13.334 1.372 12.9654 1.232 12.508 1.232C12.0414 1.232 11.668 1.372 11.388 1.652C11.108 1.92267 10.968 2.27733 10.968 2.716C10.968 3.14533 11.1127 3.50933 11.402 3.808C11.6914 4.10667 12.06 4.256 12.508 4.256ZM12.508 9.296C13.096 9.296 13.5674 9.12333 13.922 8.778C14.286 8.42333 14.468 7.98 14.468 7.448C14.468 6.916 14.2814 6.47733 13.908 6.132C13.5347 5.77733 13.068 5.6 12.508 5.6C11.9387 5.6 11.4674 5.77267 11.094 6.118C10.7207 6.454 10.534 6.89733 10.534 7.448C10.534 7.98 10.7114 8.42333 11.066 8.778C11.43 9.12333 11.9107 9.296 12.508 9.296Z" fill="#D0CFDD"/>
</svg>
