<svg width="20" height="20" viewBox="0 0 20 20" fill="none" xmlns="http://www.w3.org/2000/svg">
<path fill-rule="evenodd" clip-rule="evenodd" d="M5.8457 6.03679C6.31332 4.88858 7.75763 4.59609 8.60995 5.47698L14.0408 11.0899C14.8848 11.9622 14.6169 13.4385 13.5245 13.9355L4.05271 18.2449C2.64806 18.884 1.20933 17.4211 1.80473 15.9591L5.8457 6.03679ZM7.4099 6.71726L3.36894 16.6396L12.8407 12.3302L7.4099 6.71726Z" fill="#D0CFDD"/>
<path fill-rule="evenodd" clip-rule="evenodd" d="M16.623 2.82464C16.6175 2.74724 16.6099 2.63783 16.6099 2.54364C16.6099 2.05928 16.9898 1.66663 17.4584 1.66663C17.9271 1.66663 18.307 2.05928 18.307 2.54364C18.307 2.56994 18.3096 2.60801 18.3161 2.70365C18.3167 2.71309 18.3174 2.72309 18.3181 2.73369C18.325 2.83441 18.3335 2.96929 18.3335 3.11746C18.3335 3.40938 18.3017 3.80855 18.1241 4.21008C17.7171 5.13032 16.7793 5.61318 15.337 5.61318C14.1298 5.61318 13.8388 5.88305 13.7722 5.9692C13.6735 6.09671 13.6399 6.30315 13.6399 6.9287C13.6399 7.41306 13.26 7.80571 12.7913 7.80571C12.3227 7.80571 11.9428 7.41306 11.9428 6.9287C11.9428 6.90366 11.9427 6.87745 11.9426 6.85014C11.9408 6.36389 11.9378 5.53121 12.4469 4.87347C13.0167 4.13742 13.9985 3.85915 15.337 3.85916C16.4179 3.85916 16.5579 3.53354 16.5794 3.48359C16.5799 3.48254 16.5803 3.48162 16.5806 3.48083C16.6151 3.40273 16.6364 3.28803 16.6364 3.11746C16.6364 3.03439 16.6316 2.95088 16.6252 2.85675C16.6245 2.84685 16.6238 2.8361 16.623 2.82464Z" fill="#726E98"/>
<path fill-rule="evenodd" clip-rule="evenodd" d="M17.3492 7.8685C17.7843 8.04839 17.9959 8.55878 17.8219 9.0085C17.6091 9.55841 17.2377 9.92233 16.7571 10.085C16.3455 10.2242 15.9275 10.1854 15.6733 10.158C15.594 10.1495 15.5265 10.1417 15.4681 10.135C15.3165 10.1175 15.2265 10.1072 15.1502 10.1088C14.889 10.4461 14.4202 10.5403 14.0518 10.3118C13.6499 10.0626 13.5196 9.52391 13.7607 9.10858C14.0695 8.57669 14.5538 8.40115 14.9538 8.36423C15.2312 8.33864 15.5463 8.37699 15.7476 8.4015C15.7859 8.40616 15.8201 8.41032 15.8491 8.41344C16.0761 8.43788 16.1732 8.4315 16.2157 8.42171C16.2227 8.41013 16.2335 8.38977 16.2462 8.35707C16.4202 7.90736 16.914 7.68862 17.3492 7.8685Z" fill="#726E98"/>
<path fill-rule="evenodd" clip-rule="evenodd" d="M11.3911 1.73034C11.8638 1.62655 12.3521 1.90657 12.4816 2.35578C12.645 2.92249 12.5854 3.44535 12.2608 3.8708C11.9808 4.23781 11.5692 4.43244 11.3274 4.54258C11.2465 4.57944 11.1791 4.6095 11.1223 4.63486C10.9999 4.68946 10.9263 4.7223 10.8714 4.75435C10.8738 5.17203 10.5429 5.52167 10.0911 5.5562C9.60449 5.5934 9.16202 5.25102 9.10279 4.79148C9.0677 4.51925 9.10288 4.25306 9.22045 4.00859C9.33495 3.77051 9.50537 3.59909 9.66691 3.4761C9.90317 3.29624 10.2195 3.15816 10.4104 3.0748C10.4457 3.0594 10.4767 3.04587 10.5021 3.03429C10.6117 2.9844 10.6856 2.94634 10.7401 2.91142C10.7688 2.89298 10.7858 2.87939 10.795 2.87111C10.7953 2.849 10.791 2.80587 10.7696 2.73162C10.6401 2.28241 10.9183 1.83412 11.3911 1.73034ZM10.7917 2.89034C10.7911 2.88982 10.7914 2.88511 10.7947 2.8778C10.794 2.88721 10.7924 2.89087 10.7917 2.89034Z" fill="#726E98"/>
</svg>
